PathFileType	4	(X/Y/Z)	C:/Users/opensim2020/Desktop/walking_exp_matlab/subject06_walking11_run.trc	
DataRate	CameraRate	NumFrames	NumMarkers	Units	OrigDataRate	OrigDataStartFrame	OrigNumFrames	
100.00	100.00	4	46	mm	100.00	212	106	
Frame#	Time	LKNE			RKNE			RFRM			RWRA			RWRB			RELB			RUPA			RSHO			LWRA			RFIN			RFHD			CLAV			RASI			RTHI			LSHO			LTHI			RBHD			C7			LTIB			LANK			LTOE			LBHD			RTIB			RBAK			LHEE			RANK			STRN			RHEE			RTOE			T10			LUPA			LFHD			LPSI			RPSI			LASI			LFRM			LWRB			LFIN			LELB			*39			*40			*41			*42			*43			*44			*45			
		X1	Y1	Z1	X2	Y2	Z2	X3	Y3	Z3	X4	Y4	Z4	X5	Y5	Z5	X6	Y6	Z6	X7	Y7	Z7	X8	Y8	Z8	X9	Y9	Z9	X10	Y10	Z10	X11	Y11	Z11	X12	Y12	Z12	X13	Y13	Z13	X14	Y14	Z14	X15	Y15	Z15	X16	Y16	Z16	X17	Y17	Z17	X18	Y18	Z18	X19	Y19	Z19	X20	Y20	Z20	X21	Y21	Z21	X22	Y22	Z22	X23	Y23	Z23	X24	Y24	Z24	X25	Y25	Z25	X26	Y26	Z26	X27	Y27	Z27	X28	Y28	Z28	X29	Y29	Z29	X30	Y30	Z30	X31	Y31	Z31	X32	Y32	Z32	X33	Y33	Z33	X34	Y34	Z34	X35	Y35	Z35	X36	Y36	Z36	X37	Y37	Z37	X38	Y38	Z38	X39	Y39	Z39	X40	Y40	Z40	X41	Y41	Z41	X42	Y42	Z42	X43	Y43	Z43	X44	Y44	Z44	X45	Y45	Z45	X46	Y46	Z46	

27	0.260	114.40308	-669.90308	516.82239	355.15622	-936.35071	481.99954	461.59412	-716.57996	1089.59302	345.59366	-658.76776	1144.41357	364.38831	-630.70966	1087.83313	530.62244	-785.96185	1116.76990	503.73746	-782.79419	1218.53516	379.09192	-720.64941	1378.01270	30.73944	-795.27490	1117.57593	325.45514	-578.72211	1136.50269	295.71689	-645.12097	1613.53931	216.48279	-699.88031	1334.33093	336.20746	-785.35443	917.58051	380.79004	-915.28125	607.09442	75.42187	-784.84796	1395.77979	71.14338	-747.54205	650.75116	303.69122	-778.33051	1568.10791	232.32001	-797.27271	1429.06372	114.87054	-834.82758	344.76709	145.73840	-960.19171	223.26091	153.46353	-865.98254	118.00803	175.23013	-791.76965	1577.90002	351.90848	-1108.41309	277.85574	319.56467	-889.54376	1279.96118	188.77594	-1005.68799	235.52495	309.48254	-1235.11316	143.33650	210.71237	-698.73169	1151.15015	272.77628	-1282.66980	155.76158	276.16116	-1137.66638	29.43545	232.66978	-898.36328	1118.72229	-23.58327	-910.21021	1285.74524	164.68462	-656.97797	1628.81567	137.43285	-924.19818	986.37317	306.51593	-921.57312	988.25543	119.92120	-773.50214	926.08643	-44.91858	-899.74982	1120.72363	7.68019	-818.10980	1054.57654	32.95240	-729.13153	1047.99304	-60.28952	-983.76624	1219.99512				234.31853	-750.35828	1667.71094															 
28	0.270	112.73591	-623.36768	532.81042	354.91895	-913.16876	492.34827	456.94162	-674.87079	1102.70581	341.42209	-620.92603	1162.34290	358.59253	-590.39984	1106.75000	527.97083	-743.11377	1125.86536	500.90610	-740.46509	1227.21326	376.08020	-681.24646	1387.10144	27.55015	-765.29437	1128.50110	320.01566	-540.80219	1158.13708	293.47659	-608.84961	1621.84973	214.13339	-663.60480	1342.95471	334.91727	-743.42303	925.13446	380.03180	-883.57397	615.62305	74.99917	-750.40723	1404.57764	70.84074	-702.64093	665.72522	301.65399	-741.99530	1576.31616	231.44119	-760.80054	1437.10718	116.13539	-772.90155	344.92316	150.31857	-885.97357	211.66444	160.72681	-783.40479	114.15136	173.24367	-755.73242	1586.17334	353.43372	-1090.88721	291.91452	321.67633	-850.88544	1288.73682	193.21931	-932.74500	220.41479	313.38992	-1217.50940	158.51106	208.75641	-661.87805	1159.84741	276.99417	-1262.72986	172.84288	276.01648	-1137.79614	29.24734	235.78270	-860.18671	1126.37219	-21.46319	-878.74567	1297.84143	162.43994	-621.05707	1637.27515	139.08606	-885.01868	995.08826	307.56952	-880.40930	994.93793	119.98026	-733.32928	936.16992	-44.24649	-872.38965	1133.91296	5.51205	-789.85883	1066.19019	27.63972	-700.28876	1057.85071	-56.73349	-954.87781	1234.23694				232.28294	-714.28094	1676.02258															 
29	0.280	111.19677	-579.31750	546.94611	354.82382	-887.80438	503.36032	452.62073	-633.86133	1115.53333	337.64856	-583.39557	1179.17590	353.21738	-550.92365	1124.31421	525.61975	-700.88428	1135.24426	497.89319	-698.55884	1236.40857	373.23651	-642.22998	1396.50037	25.37079	-734.01141	1138.83459	314.72620	-503.78360	1178.15283	290.99643	-572.37909	1630.19043	211.82309	-627.26050	1351.65112	334.20322	-701.45453	933.28998	379.41409	-850.70941	624.55859	74.26211	-715.03113	1413.27966	70.51652	-659.26093	680.22809	299.36182	-705.54987	1584.82422	230.34334	-724.00830	1445.42126	117.71468	-712.28467	344.06174	154.87560	-811.39771	200.09053	168.34776	-701.35944	110.25562	170.98322	-719.34143	1594.55151	355.71124	-1070.61719	305.99036	323.31757	-811.62988	1297.70288	197.64227	-858.79407	205.80490	317.43021	-1196.34534	171.75229	207.66397	-625.61877	1169.08838	280.97894	-1238.45593	189.68323	276.48148	-1137.73364	29.66813	238.76453	-821.77478	1134.43005	-19.55766	-846.04572	1309.37268	160.06366	-584.71161	1645.51086	140.64310	-844.88531	1004.03137	308.03299	-839.13239	1001.61517	119.97939	-692.96082	946.44128	-43.41189	-843.28790	1145.89551	4.06153	-760.32782	1076.26111	23.19901	-670.06726	1067.14111	-53.15342	-924.58826	1247.52881				229.86774	-677.94232	1684.51367															 
30	0.290	109.94286	-537.51062	558.55151	354.82367	-860.94788	514.16394	448.65714	-593.59424	1127.61023	334.44714	-546.04523	1194.67920	348.26971	-512.28070	1140.18909	523.45306	-659.48157	1144.58069	495.19931	-657.35864	1245.95239	370.35992	-603.87927	1405.63147	24.06250	-701.43579	1148.32104	310.52182	-466.64444	1195.64551	288.27859	-535.88220	1637.96887	209.80815	-590.95923	1360.07520	333.71713	-659.48517	941.48395	379.23846	-817.41656	633.35150	73.40881	-678.84479	1421.57922	70.15643	-617.93536	692.96344	296.84970	-669.07861	1593.20435	229.15404	-687.10223	1453.60095	119.19430	-652.51263	341.69238	159.18974	-736.61609	188.84097	176.28067	-620.12335	106.58599	168.42511	-682.85913	1602.65198	358.78418	-1047.35571	319.54300	324.56323	-772.33899	1306.47620	201.36086	-784.50616	192.13849	321.01001	-1173.39038	183.38937	204.77263	-585.93994	1178.04639	285.37878	-1212.18518	205.94328	277.20517	-1131.48938	34.24456	241.52699	-783.07568	1142.45178	-17.98652	-812.33917	1320.10974	157.60257	-548.09790	1653.01550	142.26306	-804.18054	1012.69000	308.25580	-797.45630	1007.97235	120.14398	-652.63403	956.17511	-42.15663	-812.45166	1156.69739	3.81014	-729.44379	1086.23462	19.68464	-638.70258	1075.76672	-49.89178	-892.73029	1259.50977				227.06711	-641.15076	1692.71948															 
